<svg width="24" height="24" viewBox="0 0 24 24" fill="none" xmlns="http://www.w3.org/2000/svg">
<path d="M7.90717 4.36076C7.00763 3.79883 5.82782 3.89192 5.06847 4.65127L3.7817 5.93804C1.82739 7.89236 3.66372 12.8973 7.88327 17.1168C12.1028 21.3364 17.1077 23.1727 19.0621 21.2184L20.3488 19.9316C21.2371 19.0433 21.2137 17.5795 20.2964 16.6623L18.3033 14.6692C17.386 13.7519 15.9222 13.7284 15.0339 14.6167L14.7575 14.8931C14.2779 15.3727 13.5042 15.4196 12.9641 14.974C12.4432 14.5441 11.9244 14.0807 11.4219 13.5782C10.9194 13.0757 10.456 12.5569 10.0261 12.036C9.58045 11.4959 9.62737 10.7222 10.107 10.2426L10.3834 9.96618C11.0837 9.26587 11.2173 8.20794 10.7931 7.34206" stroke="white" strokeWidth="1.5" stroke-linecap="round"/>
<path d="M17.6265 9.7508C17.3825 9.15562 17.0189 8.59799 16.5356 8.11472C16.0796 7.65874 15.5575 7.30927 15 7.06631" stroke="white" strokeWidth="1.5" stroke-linecap="round"/>
<path d="M15 3.66341C16.3346 4.14691 17.5869 4.92365 18.6569 5.99364C19.7537 7.09049 20.5424 8.37883 21.0229 9.75113" stroke="white" strokeWidth="1.5" stroke-linecap="round"/>
</svg>
