<svg width="1278" height="6" viewBox="0 0 1278 6" fill="none" xmlns="http://www.w3.org/2000/svg">
<path d="M0.333333 3C0.333333 4.47276 1.52724 5.66667 3 5.66667C4.47276 5.66667 5.66667 4.47276 5.66667 3C5.66667 1.52724 4.47276 0.333334 3 0.333333C1.52724 0.333333 0.333334 1.52724 0.333333 3ZM1272.33 3.00039C1272.33 4.47315 1273.53 5.66706 1275 5.66706C1276.47 5.66706 1277.67 4.47315 1277.67 3.00039C1277.67 1.52764 1276.47 0.333728 1275 0.333727C1273.53 0.333727 1272.33 1.52763 1272.33 3.00039ZM3 3.5L1275 3.50039L1275 2.50039L3 2.5L3 3.5Z" fill="#CFCFCF"/>
</svg>
