<svg width="20" height="16" viewBox="0 0 20 16" fill="none" xmlns="http://www.w3.org/2000/svg">
<path d="M0 1.75C0 1.05964 0.559644 0.5 1.25 0.5H18.75C19.4404 0.5 20 1.05964 20 1.75C20 2.44036 19.4404 3 18.75 3H1.25C0.559644 3 0 2.44036 0 1.75ZM0 8C0 7.30964 0.559644 6.75 1.25 6.75H18.75C19.4404 6.75 20 7.30964 20 8C20 8.69036 19.4404 9.25 18.75 9.25H1.25C0.559644 9.25 0 8.69036 0 8ZM0 14.25C0 13.5596 0.559644 13 1.25 13H18.75C19.4404 13 20 13.5596 20 14.25C20 14.9404 19.4404 15.5 18.75 15.5H1.25C0.559644 15.5 0 14.9404 0 14.25Z" fill="#EF7F1A"/>
</svg>
