<svg width="12" height="12" viewBox="0 0 12 12" fill="none" xmlns="http://www.w3.org/2000/svg">
<path d="M5.29288 3.87888C5.6834 4.2694 6.31657 4.2694 6.70709 3.87888L10.243 0.342987C10.6335 -0.0474781 11.2665 -0.0474791 11.657 0.342986V0.342986C12.0475 0.733452 12.0475 1.36652 11.657 1.75699L8.12109 5.29288C7.73057 5.6834 7.73057 6.31657 8.12109 6.70709L11.657 10.243C12.0475 10.6335 12.0475 11.2665 11.657 11.657V11.657C11.2665 12.0475 10.6335 12.0475 10.243 11.657L6.70709 8.12109C6.31657 7.73057 5.6834 7.73057 5.29288 8.12109L1.75699 11.657C1.36652 12.0475 0.733452 12.0475 0.342986 11.657V11.657C-0.0474791 11.2665 -0.0474789 10.6335 0.342987 10.243L3.87888 6.70709C4.2694 6.31657 4.2694 5.6834 3.87888 5.29288L0.342987 1.75699C-0.0474782 1.36652 -0.0474791 0.733452 0.342986 0.342986V0.342986C0.733452 -0.0474791 1.36652 -0.0474789 1.75699 0.342987L5.29288 3.87888Z" fill="#EF7F1A"/>
</svg>
