<svg width="43" height="43" viewBox="0 0 43 43" fill="none" xmlns="http://www.w3.org/2000/svg">
<g id="location">
<path id="Icon" d="M21.5 3.58337C13.6167 3.58337 7.16669 10.0334 7.16669 17.9167C7.16669 27.5917 19.7083 38.5209 20.2458 39.0584C20.6042 39.2375 21.1417 39.4167 21.5 39.4167C21.8583 39.4167 22.3958 39.2375 22.7542 39.0584C23.2917 38.5209 35.8333 27.5917 35.8333 17.9167C35.8333 10.0334 29.3833 3.58337 21.5 3.58337ZM21.5 35.2959C17.7375 31.7125 10.75 24.0084 10.75 17.9167C10.75 12.0042 15.5875 7.16671 21.5 7.16671C27.4125 7.16671 32.25 12.0042 32.25 17.9167C32.25 23.8292 25.2625 31.7125 21.5 35.2959ZM21.5 10.75C17.5583 10.75 14.3334 13.975 14.3334 17.9167C14.3334 21.8584 17.5583 25.0834 21.5 25.0834C25.4417 25.0834 28.6667 21.8584 28.6667 17.9167C28.6667 13.975 25.4417 10.75 21.5 10.75ZM21.5 21.5C19.5292 21.5 17.9167 19.8875 17.9167 17.9167C17.9167 15.9459 19.5292 14.3334 21.5 14.3334C23.4708 14.3334 25.0833 15.9459 25.0833 17.9167C25.0833 19.8875 23.4708 21.5 21.5 21.5Z" fill="#EF7F1A"/>
</g>
</svg>
