<svg width="26" height="27" viewBox="0 0 26 27" fill="none" xmlns="http://www.w3.org/2000/svg">
<path d="M20.1656 20.1657L19.755 20.9458L23.7792 24.9289C23.9434 25.0932 24.1487 25.1753 24.354 25.1753C24.5594 25.1753 24.7647 25.0932 24.9289 24.9289C25.2574 24.6004 25.2574 24.1077 24.9289 23.7792L20.9048 19.755L20.1656 20.1657ZM0.00385017 12.2816C0.0449129 11.6657 0.455539 11.1319 1.07148 10.9676L3.61737 10.1053C3.82268 10.0232 4.028 9.85891 4.11012 9.6536C4.19225 9.44828 4.19225 9.20191 4.11012 8.9966L2.18017 4.19226C1.9338 3.61738 2.05699 2.96038 2.50868 2.50869C2.96037 2.057 3.57631 1.93381 4.19225 2.18018L8.99658 4.11013C9.2019 4.19226 9.44827 4.19226 9.65359 4.11013C9.8589 4.02801 10.0232 3.82269 10.0642 3.61738L10.9265 1.07149C11.1318 0.45555 11.6246 0.0859851 12.2405 0.00385971C12.8565 -0.037203 13.4314 0.250236 13.7188 0.825114L16.5521 6.16327C16.6753 6.40964 16.8806 6.53283 17.1681 6.57389C17.4144 6.61496 17.6608 6.53283 17.8661 6.36858L20.371 3.90482C20.6584 3.61738 21.028 3.45313 21.4386 3.45313C21.6439 3.45313 21.8492 3.49419 22.0545 3.57632C22.6705 3.82269 22.999 4.39757 22.999 5.01351L22.7937 11.5014C22.7937 11.871 22.999 12.1995 23.3275 12.2816L24.97 12.8565C25.5859 13.0618 25.9555 13.5546 25.9965 14.2116C26.0376 14.8275 25.7091 15.4024 25.1753 15.6898L19.6729 18.5231L17.2913 16.1415V11.871C17.2913 11.4193 16.9217 11.0497 16.47 11.0497C16.0183 11.0497 15.6487 11.4193 15.6487 11.871V14.5401L11.5425 10.4338C11.214 10.1053 10.7212 10.1053 10.3927 10.4338C10.0642 10.7623 10.0642 11.255 10.3927 11.5835L14.499 15.6898H11.8299C11.3782 15.6898 11.0087 16.0594 11.0087 16.5111C11.0087 16.9628 11.3782 17.3323 11.8299 17.3323H16.1826L18.5642 19.714L15.7309 25.2164C15.4434 25.7912 14.8686 26.0787 14.2526 26.0376C13.6367 25.9966 13.1029 25.627 12.8975 25.0111L12.3227 23.3685C12.1995 23.04 11.871 22.7937 11.5425 22.8347L5.05456 23.04C4.39756 23.04 3.86374 22.7115 3.61737 22.0956C3.37099 21.4797 3.49418 20.8637 3.94587 20.412L6.40963 17.9072C6.57388 17.7019 6.65601 17.4555 6.61495 17.2091C6.57388 16.9628 6.40963 16.7164 6.20432 16.5932L0.866167 13.7599C0.250226 13.4724 -0.0372126 12.8976 0.00385017 12.2816Z" fill="#EF7F1A"/>
</svg>
