<svg width="26" height="27" viewBox="0 0 26 27" fill="none" xmlns="http://www.w3.org/2000/svg">
<path d="M5.83436 20.1657L6.24498 20.9458L2.22084 24.9289C2.05659 25.0932 1.85127 25.1753 1.64596 25.1753C1.44065 25.1753 1.23533 25.0932 1.07108 24.9289C0.74258 24.6004 0.74258 24.1077 1.07108 23.7792L5.09523 19.755L5.83436 20.1657ZM25.9961 12.2816C25.9551 11.6657 25.5445 11.1319 24.9285 10.9676L22.3826 10.1053C22.1773 10.0232 21.972 9.85891 21.8899 9.6536C21.8078 9.44828 21.8078 9.20191 21.8899 8.9966L23.8198 4.19226C24.0662 3.61738 23.943 2.96038 23.4913 2.50869C23.0396 2.057 22.4237 1.93381 21.8078 2.18018L17.0034 4.11013C16.7981 4.19226 16.5517 4.19226 16.3464 4.11013C16.1411 4.02801 15.9768 3.82269 15.9358 3.61738L15.0735 1.07149C14.8682 0.45555 14.3754 0.0859851 13.7595 0.00385971C13.1435 -0.037203 12.5686 0.250236 12.2812 0.825114L9.44788 6.16327C9.32469 6.40964 9.11938 6.53283 8.83194 6.57389C8.58556 6.61496 8.33918 6.53283 8.13387 6.36858L5.62904 3.90482C5.3416 3.61738 4.97204 3.45313 4.56141 3.45313C4.3561 3.45313 4.15079 3.49419 3.94547 3.57632C3.32953 3.82269 3.00103 4.39757 3.00103 5.01351L3.20634 11.5014C3.20634 11.871 3.00103 12.1995 2.67253 12.2816L1.03002 12.8565C0.414078 13.0618 0.0445133 13.5546 0.00345059 14.2116C-0.0376121 14.8275 0.29089 15.4024 0.824705 15.6898L6.32711 18.5231L8.70875 16.1415V11.871C8.70875 11.4193 9.07831 11.0497 9.53 11.0497C9.98169 11.0497 10.3513 11.4193 10.3513 11.871V14.5401L14.4575 10.4338C14.786 10.1053 15.2788 10.1053 15.6073 10.4338C15.9358 10.7623 15.9358 11.255 15.6073 11.5835L11.501 15.6898H14.1701C14.6218 15.6898 14.9913 16.0594 14.9913 16.5111C14.9913 16.9628 14.6218 17.3323 14.1701 17.3323H9.81744L7.4358 19.714L10.2691 25.2164C10.5566 25.7912 11.1314 26.0787 11.7474 26.0376C12.3633 25.9966 12.8971 25.627 13.1025 25.0111L13.6773 23.3685C13.8005 23.04 14.129 22.7937 14.4575 22.8347L20.9454 23.04C21.6024 23.04 22.1363 22.7115 22.3826 22.0956C22.629 21.4797 22.5058 20.8637 22.0541 20.412L19.5904 17.9072C19.4261 17.7019 19.344 17.4555 19.3851 17.2091C19.4261 16.9628 19.5904 16.7164 19.7957 16.5932L25.1338 13.7599C25.7498 13.4724 26.0372 12.8976 25.9961 12.2816Z" fill="#EF7F1A"/>
</svg>
