<svg width="74" height="74" viewBox="0 0 74 74" fill="none" xmlns="http://www.w3.org/2000/svg">
<rect width="74" height="74" fill="white"/>
<path d="M11.1398 54.8534L11.4302 54.5969L30.8333 35.1962L40.9864 45.3469C42.0979 46.4584 43.8469 46.5439 45.0564 45.6034L45.3469 45.3469L58.5833 32.1129L62.5697 36.0969C64.4277 37.9549 67.5471 36.777 67.8149 34.267L67.8333 33.9167L67.8279 21.4002L67.8003 21.1302L67.7232 20.7637L67.6487 20.5299L67.5445 20.2784L67.3832 19.9778L67.1768 19.6808L66.9302 19.403C66.8211 19.294 66.7058 19.1947 66.5855 19.1054L66.2425 18.8844L65.8949 18.7196L65.5701 18.6105L65.2078 18.534L65.0252 18.5122L64.75 18.5H52.4167C49.7891 18.5 48.4162 21.5387 50.0017 23.5028L50.2364 23.7636L54.2204 27.75L43.1667 38.8037L33.0136 28.6531C31.9021 27.5416 30.1531 27.4561 28.9436 28.3966L28.6531 28.6531L7.06975 50.2364C5.86564 51.4405 5.86564 53.3928 7.06975 54.5969C8.18124 55.7084 9.93021 55.7939 11.1398 54.8534Z" fill="#8C8C8C"/>
</svg>
